<?xml version="1.0" standalone="no"?>
<!DOCTYPE svg PUBLIC "-//W3C//DTD SVG 20010904//EN"
 "http://www.w3.org/TR/2001/REC-SVG-20010904/DTD/svg10.dtd">
<svg version="1.0" xmlns="http://www.w3.org/2000/svg"
 width="512.000000pt" height="512.000000pt" viewBox="0 0 512.000000 512.000000"
 preserveAspectRatio="xMidYMid meet">

<g transform="translate(0.000000,512.000000) scale(0.100000,-0.100000)"
fill="#000000" stroke="none">
<path d="M410 2555 l0 -2165 2150 0 2150 0 0 2165 0 2165 -2150 0 -2150 0 0
-2165z m3880 5 l0 -1670 -1730 0 -1730 0 0 1670 0 1670 1730 0 1730 0 0 -1670z"/>
<path d="M2481 4089 c-85 -25 -147 -88 -199 -201 -36 -78 -29 -75 -173 -56
-77 10 -95 9 -155 -7 -83 -22 -134 -68 -154 -138 -35 -127 30 -266 211 -449
l97 -97 -102 -82 c-131 -107 -356 -332 -433 -434 -98 -130 -176 -267 -221
-390 -62 -166 -55 -448 16 -648 87 -245 294 -420 592 -500 222 -60 547 -81
856 -57 366 30 616 127 781 304 141 150 209 347 212 611 3 194 -40 336 -159
530 -121 197 -355 446 -598 634 l-43 34 94 96 c152 156 212 250 224 351 9 76
-12 134 -64 180 -65 57 -152 71 -324 52 l-66 -8 -39 81 c-50 104 -112 168
-185 189 -58 18 -117 19 -168 5z m126 -203 c16 -14 44 -58 63 -98 69 -154 100
-175 240 -162 116 10 216 11 225 2 13 -13 -36 -102 -101 -180 -37 -44 -103
-111 -147 -149 l-80 -69 -251 0 -252 0 -102 96 c-147 137 -234 259 -217 302 5
15 31 14 246 -4 117 -10 152 17 219 164 34 75 77 122 110 122 10 0 32 -11 47
-24z m-177 -862 c0 -8 -7 -45 -15 -82 -25 -111 -45 -297 -45 -409 0 -102 1
-108 27 -135 39 -40 101 -40 136 1 22 27 25 42 31 153 7 117 18 220 34 318 l8
45 11 -50 c12 -52 26 -184 39 -353 6 -83 9 -96 33 -118 35 -33 90 -33 128 0
l28 25 -2 137 c-3 162 -28 360 -59 467 -30 102 387 -246 592 -495 48 -57 143
-207 171 -268 56 -122 67 -174 67 -310 -1 -193 -35 -316 -124 -445 -90 -131
-317 -237 -580 -269 -25 -3 -70 -9 -100 -13 -92 -12 -428 -8 -545 6 -451 53
-672 207 -740 516 -25 113 -26 310 -1 390 37 118 131 287 220 393 111 134 205
227 351 349 50 41 99 83 111 93 69 57 98 70 161 70 50 0 63 -3 63 -16z"/>
</g>
</svg>
